<svg xmlns="http://www.w3.org/2000/svg" width="760" height="190" fill="none" aria-labelledby="title desc" role="img" viewBox="0 0 760 190"><title id="title">Milestone Development</title><desc id="desc">Transparent gold Milestone Development vector logo with geometric architectural M mark.</desc><defs><linearGradient id="milestoneGold" x1="228" x2="548" y1="15" y2="178" gradientUnits="userSpaceOnUse"><stop offset="0" stop-color="#FFF3A6"/><stop offset=".42" stop-color="#E8CF6C"/><stop offset="1" stop-color="#B78C2D"/></linearGradient><linearGradient id="milestoneGoldSoft" x1="208" x2="552" y1="126" y2="186" gradientUnits="userSpaceOnUse"><stop offset="0" stop-color="#F7E58F"/><stop offset=".55" stop-color="#E2C864"/><stop offset="1" stop-color="#B99034"/></linearGradient><filter id="goldGlow" width="500" height="210" x="130" y="-10" color-interpolation-filters="sRGB" filterUnits="userSpaceOnUse"><feGaussianBlur result="blur" stdDeviation="3.2"/><feColorMatrix in="blur" result="glow" type="matrix" values="1 0 0 0 0.92 0 1 0 0 0.74 0 0 1 0 0.25 0 0 0 0.38 0"/><feMerge><feMergeNode in="glow"/><feMergeNode in="SourceGraphic"/></feMerge></filter><symbol id="milestoneMark" viewBox="0 0 280 132"><path stroke="#6F561E" stroke-linejoin="miter" stroke-width="2.4" d="M12 125V28L51 55V10L140 63L229 10V55L268 28V125H229V66L140 119L51 66V125H12Z"/><path stroke="url(#milestoneGold)" stroke-linecap="square" stroke-linejoin="miter" stroke-width="13" d="M31 112V43L62 63V36L140 82L218 36V63L249 43V112H229V68L140 121L51 68V112H31Z"/><path stroke="#F0DB75" stroke-linecap="square" stroke-linejoin="miter" stroke-width="9" d="M62 63L140 109L218 63M72 118L140 78L208 118"/><path stroke="#6F561E" stroke-linecap="square" stroke-linejoin="miter" stroke-width="1.6" d="M62 63L140 109L218 63M72 118L140 78L208 118"/></symbol></defs><g filter="url(#goldGlow)"><use width="210" height="99" x="275" y="0" href="#milestoneMark"/><text x="380" y="158" fill="url(#milestoneGoldSoft)" stroke="#6F561E" stroke-width="1.7" font-family="Montserrat, 'Aptos Display', 'Segoe UI', Arial, sans-serif" font-size="58" font-weight="900" letter-spacing="9" paint-order="stroke fill" text-anchor="middle">MILESTONE</text><text x="380" y="186" fill="url(#milestoneGoldSoft)" stroke="#6F561E" stroke-width="1.15" font-family="Montserrat, 'Aptos Display', 'Segoe UI', Arial, sans-serif" font-size="30" font-weight="800" letter-spacing="9" paint-order="stroke fill" text-anchor="middle">DEVELOPMENT</text></g></svg>