<svg xmlns="http://www.w3.org/2000/svg" width="96" height="96" fill="none" aria-labelledby="title desc" role="img" viewBox="0 0 96 96"><title id="title">Milestone Development logo mark</title><desc id="desc">Transparent gold geometric architectural M mark.</desc><defs><linearGradient id="markGold" x1="15" x2="82" y1="12" y2="84" gradientUnits="userSpaceOnUse"><stop offset="0" stop-color="#FFF3A6"/><stop offset=".44" stop-color="#E8CF6C"/><stop offset="1" stop-color="#B78C2D"/></linearGradient><filter id="markGlow" width="112" height="112" x="-8" y="-8" color-interpolation-filters="sRGB" filterUnits="userSpaceOnUse"><feGaussianBlur result="blur" stdDeviation="1.8"/><feColorMatrix in="blur" result="glow" type="matrix" values="1 0 0 0 0.92 0 1 0 0 0.74 0 0 1 0 0.25 0 0 0 0.34 0"/><feMerge><feMergeNode in="glow"/><feMergeNode in="SourceGraphic"/></feMerge></filter></defs><g filter="url(#markGlow)"><path stroke="#6F561E" stroke-linejoin="miter" stroke-width="1.5" d="M7 82V21L20 30V9L48 26L76 9V30L89 21V82H76V45L48 62L20 45V82H7Z"/><path stroke="url(#markGold)" stroke-linecap="square" stroke-linejoin="miter" stroke-width="5.2" d="M13 76V29L22 35V25L48 40L74 25V35L83 29V76H76V47L48 64L20 47V76H13Z"/><path stroke="#F0DB75" stroke-linecap="square" stroke-linejoin="miter" stroke-width="3.9" d="M22 35L48 61L74 35M26 78L48 55L70 78"/><path stroke="#6F561E" stroke-linecap="square" stroke-linejoin="miter" stroke-width=".85" d="M22 35L48 61L74 35M26 78L48 55L70 78"/></g></svg>